<svg width="60" height="60" viewBox="0 0 60 60" fill="none" xmlns="http://www.w3.org/2000/svg">
<rect width="60" height="60" rx="6" fill="#262834"/>
<path d="M47.5148 45.9546L40.7159 39.1546C40.5012 38.9441 40.2125 38.8262 39.9117 38.8262C39.611 38.8262 39.3223 38.9441 39.1076 39.1546L32.3087 45.9546C32.1466 46.1092 32.0353 46.3095 31.9898 46.5288C31.9443 46.7482 31.9666 46.9762 32.0539 47.1825C32.1411 47.3889 32.2891 47.5638 32.4782 47.6839C32.6673 47.8041 32.8885 47.8638 33.1123 47.8552H46.7112C46.9337 47.8608 47.1528 47.7992 47.3399 47.6785C47.527 47.5578 47.6734 47.3836 47.7602 47.1785C47.8469 46.9735 47.8698 46.7471 47.826 46.5288C47.7823 46.3105 47.6738 46.1104 47.5148 45.9546Z" fill="#C3C6CC"/>
<path d="M47.7398 21.5299L45.6101 15.2073C45.514 14.9214 45.3608 14.658 45.1598 14.4331L11.9961 47.5956C12.1907 47.7698 12.4449 47.8624 12.706 47.8541H22.1255C22.3888 47.8554 22.6497 47.8047 22.8934 47.705C23.137 47.6052 23.3586 47.4584 23.5454 47.2728L47.2884 23.5299C47.5464 23.2742 47.726 22.9501 47.806 22.5958C47.886 22.2415 47.863 21.8716 47.7398 21.5299Z" fill="#E1E3E6"/>
<path d="M44.3875 13.9808L38.0649 11.8522C37.7232 11.729 37.3534 11.706 36.9991 11.786C36.6447 11.866 36.3206 12.0456 36.065 12.3037L12.3209 36.0466C11.9474 36.4246 11.7388 36.9351 11.7407 37.4664V46.886C11.7325 47.147 11.825 47.4013 11.9992 47.5959L45.1629 14.4334C44.9377 14.2317 44.6739 14.0777 44.3875 13.9808Z" fill="#C3C6CC"/>
</svg>
